<?xml version="1.0" standalone="no"?>
<svg version="1.0" xmlns="http://www.w3.org/2000/svg"
 width="905pt" height="145pt" viewBox="27 60 870 30"
 preserveAspectRatio="xMidYMid meet">

<g transform="translate(0.000000,145.000000) scale(0.100000,-0.100000)"
fill="#dd1c25" stroke="none">
<path d="M580 1237 c0 -2 -70 -235 -155 -517 -85 -283 -153 -515 -152 -516 1
-1 11 2 22 6 17 6 46 91 169 501 82 272 151 502 154 512 3 12 -2 17 -17 17
-11 0 -21 -1 -21 -3z"/>
<path d="M786 1188 c-9 -29 -78 -260 -155 -513 -76 -253 -137 -462 -135 -464
9 -10 63 -9 72 2 5 7 44 125 85 262 161 532 227 754 227 759 0 3 -18 6 -39 6
-39 0 -40 -1 -55 -52z"/>
<path d="M1000 1173 c-213 -706 -287 -959 -283 -965 2 -5 40 -8 84 -8 73 0 80
2 89 23 5 12 73 233 150 492 77 259 145 482 150 498 l9 27 -89 0 -89 0 -21
-67z"/>
<path d="M1342 1203 c-213 -703 -298 -994 -291 -999 10 -6 5681 -1 6818 6
l783 5 154 510 c84 281 154 511 154 513 0 1 -1712 2 -3803 2 l-3804 0 -11 -37z
m868 -225 c33 -17 48 -32 59 -60 21 -56 7 -124 -33 -164 l-33 -33 20 -20 c32
-32 35 -124 5 -181 -38 -73 -65 -83 -245 -88 -85 -3 -158 -1 -163 4 -7 7 41
344 75 532 l6 32 132 0 c118 0 138 -3 177 -22z m475 8 c57 -24 77 -67 72 -157
-4 -86 -24 -131 -73 -164 l-31 -21 33 -89 c47 -128 48 -125 -35 -125 -43 0
-73 5 -77 12 -4 6 -19 52 -34 102 -23 82 -28 91 -52 94 -25 3 -25 2 -39 -100
l-14 -103 -67 -3 c-66 -3 -68 -2 -68 22 0 14 18 136 40 273 22 136 40 254 40
261 0 18 259 17 305 -2z m485 5 l65 -6 -2 -35 c-6 -84 -1 -80 -122 -80 -118 0
-124 -3 -134 -57 l-6 -31 94 -4 c51 -1 96 -6 99 -9 7 -7 -9 -97 -19 -107 -3
-4 -49 -9 -101 -10 l-93 -4 -7 -33 c-3 -19 -3 -38 1 -44 4 -7 49 -11 117 -11
l110 0 -7 -52 c-4 -29 -9 -56 -11 -59 -2 -4 -61 -10 -132 -14 -154 -8 -194 3
-217 58 -13 31 -11 52 15 219 16 102 34 196 39 209 12 31 42 58 77 69 34 10
141 10 234 1z m474 -18 c18 -87 84 -528 80 -535 -3 -4 -34 -8 -69 -8 -69 0
-67 -2 -80 73 l-6 37 -75 0 -74 0 -27 -55 -27 -55 -73 0 c-40 0 -73 4 -73 9 0
5 60 133 134 285 l135 276 75 0 c73 0 75 0 80 -27z m366 -1 c0 -26 -13 -113
-25 -169 -11 -49 23 -19 98 87 l78 110 79 0 c44 0 80 -4 80 -9 0 -4 -8 -19
-18 -32 -10 -13 -55 -76 -100 -140 l-82 -116 55 -123 c30 -68 55 -129 55 -137
0 -18 -133 -18 -147 0 -6 6 -27 56 -48 110 -28 72 -43 97 -56 97 -14 0 -19
-11 -24 -47 -4 -27 -12 -75 -19 -108 l-11 -60 -62 -3 c-61 -3 -63 -2 -63 21 0
14 18 138 40 276 22 138 40 255 40 261 0 6 28 10 65 10 65 0 65 0 65 -28z
m522 23 c5 -5 -76 -525 -86 -550 -4 -11 -22 -15 -71 -15 -36 0 -65 3 -65 6 0
11 80 518 85 542 5 20 11 22 69 22 34 0 65 -2 68 -5z m299 -146 c73 -172 63
-175 94 34 l18 117 68 0 c59 0 69 -2 68 -17 0 -10 -19 -137 -43 -283 l-42
-265 -68 0 -67 0 -62 142 c-33 78 -63 140 -66 138 -2 -3 -14 -67 -25 -142
l-21 -138 -68 -3 c-65 -3 -67 -2 -67 21 0 13 18 136 40 273 22 137 40 255 40
262 0 8 20 12 69 12 l69 0 63 -151z m683 139 l58 -11 -6 -36 c-3 -20 -6 -44
-6 -54 0 -17 -8 -18 -110 -11 -92 6 -113 4 -134 -10 -31 -20 -55 -93 -63 -198
-7 -90 2 -108 52 -108 41 0 71 26 80 68 6 30 5 32 -23 32 -30 0 -30 1 -25 43
3 23 7 44 9 45 14 17 189 30 197 15 2 -5 -8 -80 -22 -168 l-26 -160 -44 -3
c-28 -2 -49 2 -60 12 -15 14 -21 14 -61 0 -93 -32 -174 -4 -206 73 -21 48 -18
186 6 278 42 164 90 204 241 205 47 0 112 -5 143 -12z m577 -140 l64 -152 24
152 24 152 68 0 c38 0 69 -4 69 -9 0 -13 -79 -512 -85 -539 -5 -21 -10 -23
-71 -20 l-66 3 -61 142 c-34 78 -63 140 -66 138 -2 -3 -14 -67 -25 -142 l-22
-138 -58 -3 c-32 -2 -64 -1 -71 2 -9 3 0 74 31 273 24 147 44 274 44 281 0 8
21 12 69 12 l68 0 64 -152z m618 145 l92 -6 -6 -41 c-13 -81 -5 -76 -124 -76
-118 0 -124 -3 -134 -57 l-6 -31 94 -4 c51 -1 96 -6 99 -9 3 -3 3 -27 0 -53
-8 -59 -24 -66 -134 -66 l-78 0 -6 -35 c-4 -20 -4 -40 -1 -45 3 -6 55 -10 117
-10 l111 0 -7 -52 c-4 -28 -9 -55 -11 -59 -3 -3 -62 -10 -133 -14 -104 -5
-136 -4 -165 8 -67 28 -70 61 -31 305 42 254 56 264 323 245z m295 -15 c3 -13
13 -95 23 -183 l18 -159 39 99 c22 55 55 137 74 183 l34 82 69 0 c80 0 82 -4
44 -80 -28 -55 -29 -85 -12 -205 l12 -80 75 182 75 183 74 0 c66 0 72 -2 66
-17 -3 -10 -58 -139 -122 -286 l-117 -268 -75 3 -76 3 -12 78 c-6 43 -13 83
-15 89 -2 6 -21 -30 -43 -81 l-38 -92 -81 3 -81 3 -37 265 c-20 146 -37 273
-38 283 0 15 10 17 70 17 64 0 70 -2 74 -22z m982 11 l45 -12 -7 -46 c-3 -25
-9 -49 -13 -53 -3 -4 -58 -9 -121 -10 l-114 -3 -7 -32 c-9 -44 5 -53 78 -53
119 0 147 -35 142 -174 -4 -96 -21 -128 -80 -158 -40 -21 -203 -25 -275 -7
-47 12 -51 21 -38 87 l6 31 122 3 121 3 3 36 3 36 -77 6 c-90 7 -122 25 -143
82 -12 30 -13 52 -4 112 19 131 61 163 216 163 54 0 118 -5 143 -11z"/>
<path d="M2070 872 c-49 -4 -60 -13 -60 -55 0 -28 0 -28 57 -25 53 3 58 5 67
31 14 38 -6 53 -64 49z"/>
<path d="M1987 663 c-2 -4 -8 -29 -11 -55 l-7 -48 60 0 c68 0 85 15 79 73 -3
31 -4 32 -60 35 -31 2 -58 -1 -61 -5z"/>
<path d="M2496 833 c-12 -73 -11 -73 49 -73 62 0 75 13 75 74 l0 36 -59 0 -58
0 -7 -37z"/>
<path d="M3507 742 c-15 -35 -27 -65 -27 -68 0 -2 16 -4 35 -4 32 0 35 3 34
28 0 15 -3 45 -7 67 l-7 40 -28 -63z"/>
</g>
</svg>
