<?xml version="1.0" standalone="no"?>
<!DOCTYPE svg PUBLIC "-//W3C//DTD SVG 20010904//EN"
 "http://www.w3.org/TR/2001/REC-SVG-20010904/DTD/svg10.dtd">
<svg version="1.0" xmlns="http://www.w3.org/2000/svg"
 width="700.000000pt" height="700.000000pt" viewBox="0 0 700.000000 700.000000"
 preserveAspectRatio="xMidYMid meet">
<metadata>
Created by potrace 1.14, written by Peter Selinger 2001-2017
</metadata>
<g transform="translate(0.000000,700.000000) scale(0.100000,-0.100000)"
fill="#000000" stroke="none">
<path d="M3185 6970 c-1015 -102 -1913 -614 -2508 -1432 -632 -869 -824 -1987
-520 -3033 121 -417 343 -841 629 -1200 113 -141 388 -416 529 -529 460 -366
979 -605 1555 -715 396 -75 931 -72 1325 9 1042 214 1928 884 2412 1826 262
509 383 1014 383 1591 0 311 -25 534 -91 813 -182 768 -621 1452 -1250 1946
-114 90 -340 238 -477 314 -364 199 -782 334 -1222 396 -135 18 -627 27 -765
14z m1135 -1592 c69 -28 129 -54 133 -58 7 -6 -257 -656 -1237 -3050 -221
-540 -309 -744 -320 -742 -33 6 -351 142 -349 149 1 4 217 537 481 1183 263
646 606 1488 762 1870 155 382 287 705 293 717 l10 22 51 -20 c28 -12 107 -43
176 -71z m-1750 -920 l0 -253 -556 -345 c-306 -189 -563 -349 -571 -355 -12
-9 104 -82 556 -355 l570 -345 1 -267 0 -267 -557 332 c-307 183 -721 429
-920 547 l-363 215 3 120 2 120 910 552 c501 303 913 552 918 552 4 1 7 -113
7 -251z m2808 -313 l892 -538 0 -123 0 -122 -906 -539 c-499 -296 -911 -539
-915 -541 -5 -2 -9 115 -9 260 l0 263 561 340 c309 187 562 345 562 350 0 6
-252 167 -561 359 l-562 349 0 255 0 254 23 -14 c12 -8 424 -257 915 -553z"/>
</g>
</svg>
